<?xml version="1.0" encoding="utf-8"?>
<!-- Generator: Adobe Illustrator 24.1.2, SVG Export Plug-In . SVG Version: 6.00 Build 0)  -->
<svg version="1.1" id="Layer_1" xmlns="http://www.w3.org/2000/svg" xmlns:xlink="http://www.w3.org/1999/xlink" x="0px" y="0px"
	 viewBox="0 0 157.5 51" style="enable-background:new 0 0 157.5 51;" xml:space="preserve">
<style type="text/css">
	.st0{fill:#FFFFFF;}
</style>
<path class="st0" d="M0,48.75V16.78c0-0.71,0.58-1.28,1.28-1.28h6.18c0.71,0,1.28,0.58,1.28,1.28v32.93c0,0.71-0.58,1.28-1.28,1.28
	H2.25C1.01,51,0,49.99,0,48.75z"/>
<path class="st0" d="M0,11.3V3.08C0,1.38,1.38,0,3.08,0h6.11c0.51,0,0.99,0.23,1.31,0.62l15.57,18.91c0.68,0.82,1.94,0.83,2.62,0.01
	L44.46,0.61C44.79,0.22,45.27,0,45.77,0l7.28,0c0.94,0,1.7,0.76,1.7,1.7v0c0,0.4-0.14,0.79-0.4,1.1L28.58,33.41
	c-0.68,0.81-1.92,0.81-2.6,0L9.26,13.6c-0.32-0.38-0.8-0.6-1.3-0.6H1.7C0.76,13,0,12.24,0,11.3z"/>
<path class="st0" d="M52.36,9.14l-6.55,7.64c-0.2,0.23-0.31,0.53-0.31,0.84v20.84c0,0.71,0.58,1.28,1.28,1.28h6.68
	c0.71,0,1.29-0.58,1.28-1.29L54.62,9.97C54.62,8.78,53.14,8.24,52.36,9.14z"/>
<path class="st0" d="M98,38.46l0.06-7.18c0.01-1.66-1.32-3.01-2.98-3.02l-31.35-0.16c-2.75-0.01-4.97-2.25-4.97-5V5
	c0-2.76,2.24-5,5-5H120c1.24,0,2.25,1.01,2.25,2.25v5.22c0,0.71-0.58,1.28-1.28,1.28H70.5c-1.66,0-3,1.34-3,3v4.5c0,1.66,1.34,3,3,3
	l31.5-0.02c2.76,0,5,2.24,5,5v14.23c0,0.71-0.58,1.28-1.28,1.28h-6.43C98.57,39.75,98,39.17,98,38.46z"/>
<path class="st0" d="M45.75,48.75v-5.22c0-0.71,0.58-1.28,1.28-1.28h58.68c0.71,0,1.28,0.58,1.28,1.28v5.22
	c0,1.24-1.01,2.25-2.25,2.25H48C46.76,51,45.75,49.99,45.75,48.75z"/>
<path class="st0" d="M154.48,39.75h-3.47c-1.67,0-3.02-1.35-3.02-3.02V14.52c0-1.67,1.35-3.02,3.02-3.02h3.47
	c1.67,0,3.02,1.35,3.02,3.02v22.22C157.5,38.4,156.15,39.75,154.48,39.75z"/>
<path class="st0" d="M154.48,9.5h-3.47c-1.67,0-3.02-1.35-3.02-3.02V3.02c0-1.67,1.35-3.02,3.02-3.02l3.47,0
	c1.67,0,3.02,1.35,3.02,3.02v3.47C157.5,8.15,156.15,9.5,154.48,9.5z"/>
<path class="st0" d="M112.75,12.11v38.03c0,0.47,0.38,0.86,0.86,0.86h41.64c1.24,0,2.25-1.01,2.25-2.25v-5.64
	c0-0.47-0.38-0.86-0.86-0.86h-33.28c-0.47,0-0.86-0.38-0.86-0.86V12.11c0-0.47-0.38-0.86-0.86-0.86h-8.03
	C113.13,11.25,112.75,11.63,112.75,12.11z"/>
</svg>
